%TF.GenerationSoftware,KiCad,Pcbnew,8.0.1*%
%TF.CreationDate,2024-03-29T22:51:32+02:00*%
%TF.ProjectId,Veis,56656973-2e6b-4696-9361-645f70636258,rev?*%
%TF.SameCoordinates,Original*%
%TF.FileFunction,Profile,NP*%
%FSLAX46Y46*%
G04 Gerber Fmt 4.6, Leading zero omitted, Abs format (unit mm)*
G04 Created by KiCad (PCBNEW 8.0.1) date 2024-03-29 22:51:32*
%MOMM*%
%LPD*%
G01*
G04 APERTURE LIST*
%ADD10C,0.250000*%
%TA.AperFunction,Profile*%
%ADD11C,0.250000*%
%TD*%
G04 APERTURE END LIST*
D10*
X141143827Y-123400123D02*
X141247531Y-123468272D01*
X140669753Y-122783827D02*
X140694444Y-122867778D01*
D11*
X158650000Y-122610000D02*
G75*
G02*
X160650000Y-124610000I0J-2000000D01*
G01*
X166150000Y-64711613D02*
G75*
G02*
X163150000Y-64711613I-1500000J0D01*
G01*
X163150000Y-64711613D02*
G75*
G02*
X166150000Y-64711613I1500000J0D01*
G01*
D10*
X170627324Y-122795941D02*
X170650000Y-122610000D01*
X123964059Y-106087324D02*
X124150000Y-106110000D01*
X149720295Y-57614535D02*
X149443919Y-57617645D01*
X149167555Y-57621808D01*
X148891208Y-57626986D01*
X148835941Y-57628141D01*
X123099136Y-77077901D02*
X123038889Y-77221111D01*
X162464059Y-124591859D02*
X162726275Y-124585842D01*
X162988468Y-124578882D01*
X163250632Y-124570907D01*
X163303061Y-124569184D01*
X123810247Y-76189012D02*
X123730247Y-76233457D01*
X142077160Y-123835679D02*
X142250000Y-123890000D01*
X146454989Y-57723379D02*
X146191283Y-57740663D01*
X145927693Y-57759628D01*
X145752041Y-57773265D01*
D11*
X170650000Y-122610000D02*
X170650000Y-111110000D01*
D10*
X147996939Y-57650816D02*
X147724073Y-57660506D01*
X147451255Y-57671457D01*
X147203288Y-57682562D01*
X188074444Y-105398889D02*
X188138642Y-105275432D01*
X147780864Y-124561605D02*
X148042275Y-124570678D01*
X148161111Y-124574444D01*
X167563580Y-58005062D02*
X167311728Y-57966543D01*
D11*
X170650000Y-111110000D02*
G75*
G02*
X175650000Y-106110000I5000000J0D01*
G01*
D10*
X166205556Y-57832222D02*
X165951406Y-57807867D01*
X165904321Y-57803580D01*
X188532716Y-104134691D02*
X188581111Y-103932222D01*
X123161358Y-76944568D02*
X123099136Y-77077901D01*
X189131859Y-84295941D02*
X189125842Y-84033724D01*
X189118882Y-83771531D01*
X189110907Y-83509367D01*
X189109184Y-83456939D01*
X124150000Y-76110000D02*
X124062099Y-76114938D01*
X160650000Y-124610000D02*
X160911483Y-124609257D01*
X161172965Y-124608240D01*
X161434442Y-124606673D01*
X161579705Y-124605465D01*
X167384694Y-124242653D02*
X167645798Y-124201587D01*
X167906236Y-124156485D01*
X122767284Y-78085309D02*
X122718889Y-78287778D01*
X188830000Y-102510000D02*
X188862499Y-102255381D01*
X188864568Y-102238395D01*
X142101247Y-58376440D02*
X141855922Y-58462121D01*
X141761111Y-58498889D01*
X163519136Y-57658395D02*
X163257724Y-57649321D01*
X163138889Y-57645556D01*
X122185556Y-83621111D02*
X122178172Y-83877122D01*
X122174691Y-84011235D01*
X123460658Y-105747188D02*
X123619388Y-105905918D01*
D11*
X140650000Y-71110000D02*
G75*
G02*
X135650001Y-76110000I-5000000J0D01*
G01*
D10*
X161579705Y-124605465D02*
X161856080Y-124602354D01*
X162132444Y-124598191D01*
X162408791Y-124593013D01*
X162464059Y-124591859D01*
D11*
X170650000Y-71110000D02*
X170650000Y-59610000D01*
D10*
X143915306Y-57977347D02*
X143654201Y-58018412D01*
X143393764Y-58063515D01*
X146027778Y-124467778D02*
X146286250Y-124485748D01*
X146358642Y-124490494D01*
X122803061Y-104273265D02*
X122871471Y-104514922D01*
X122916440Y-104658753D01*
X188430000Y-104510000D02*
X188482346Y-104327284D01*
D11*
X183548387Y-98529192D02*
G75*
G02*
X180548387Y-98529192I-1500000J0D01*
G01*
X180548387Y-98529192D02*
G75*
G02*
X183548387Y-98529192I1500000J0D01*
G01*
D10*
X150650000Y-57610000D02*
X150388516Y-57610742D01*
X150127034Y-57611759D01*
X149865557Y-57613326D01*
X149720295Y-57614535D01*
X141216893Y-58770998D02*
X141012812Y-58920658D01*
X189125309Y-98208765D02*
X189131120Y-97958770D01*
X189134198Y-97808765D01*
X170083107Y-123449002D02*
X170287188Y-123299342D01*
X188138642Y-105275432D02*
X188200864Y-105142099D01*
X141761111Y-123721111D02*
X141914198Y-123779383D01*
X144250000Y-124290000D02*
X144504618Y-124322499D01*
X144521605Y-124324568D01*
X164600617Y-57708765D02*
X164348624Y-57695026D01*
X164250000Y-57690000D01*
X188859751Y-79942200D02*
X188827855Y-79693935D01*
X188793132Y-79446050D01*
X188782653Y-79375306D01*
X170333951Y-58962099D02*
X170250000Y-58890000D01*
X147050000Y-124530000D02*
X147309093Y-124542312D01*
X147410494Y-124546790D01*
X142917574Y-58158753D02*
X142661200Y-58218377D01*
X142486735Y-58263061D01*
X123170408Y-105293673D02*
X123291927Y-105512799D01*
X123310998Y-105543107D01*
X140854082Y-59079388D02*
X140740703Y-59247188D01*
X187489753Y-106030988D02*
X187569753Y-105986543D01*
X188983086Y-101053210D02*
X189002607Y-100802455D01*
X189007778Y-100732222D01*
X189150000Y-86110000D02*
X189149257Y-85848516D01*
X189148240Y-85587034D01*
X189146673Y-85325557D01*
X189145465Y-85180295D01*
X149361111Y-124601111D02*
X149623453Y-124604435D01*
X149780864Y-124606049D01*
X188793457Y-102771728D02*
X188828907Y-102518185D01*
X188830000Y-102510000D01*
X168382426Y-124061247D02*
X168638799Y-124001622D01*
X168813265Y-123956939D01*
X187680612Y-76314082D02*
X187512812Y-76200703D01*
X122470000Y-79710000D02*
X122437500Y-79964618D01*
X122435432Y-79981605D01*
X189149012Y-96549506D02*
X189149745Y-96288550D01*
X189150000Y-96110000D01*
X166205556Y-124387778D02*
X166454464Y-124361813D01*
X166703127Y-124333592D01*
X166817800Y-124319751D01*
X122230000Y-82510000D02*
X122217687Y-82769093D01*
X122213210Y-82870494D01*
X187797901Y-105793951D02*
X187870000Y-105710000D01*
X122154535Y-97039705D02*
X122157645Y-97316080D01*
X122161808Y-97592444D01*
X122166986Y-97868791D01*
X122168141Y-97924059D01*
X147203288Y-57682562D02*
X146945990Y-57695307D01*
X146688762Y-57709373D01*
X146454989Y-57723379D01*
X164250000Y-57690000D02*
X163990906Y-57677687D01*
X163889506Y-57673210D01*
X122248765Y-82159383D02*
X122235026Y-82411375D01*
X122230000Y-82510000D01*
X166496914Y-57862840D02*
X166241992Y-57835888D01*
X166205556Y-57832222D01*
D11*
X124150000Y-106110000D02*
X135650000Y-106110000D01*
D10*
X140966049Y-123257901D02*
X141050000Y-123330000D01*
X123502099Y-76426049D02*
X123430000Y-76510000D01*
X144482200Y-57900249D02*
X144233935Y-57932144D01*
X143986050Y-57966867D01*
X143915306Y-57977347D01*
X122165802Y-84411235D02*
X122161229Y-84667403D01*
X122158889Y-84821111D01*
X188375679Y-104682840D02*
X188430000Y-104510000D01*
X188986735Y-81212041D02*
X188964346Y-80944752D01*
X188939846Y-80677650D01*
X188927778Y-80554444D01*
X146699383Y-124511235D02*
X146951375Y-124524973D01*
X147050000Y-124530000D01*
X122870000Y-77710000D02*
X122817654Y-77892716D01*
X165593210Y-57776914D02*
X165342455Y-57757392D01*
X165272222Y-57752222D01*
X142827778Y-124041111D02*
X143040123Y-124087531D01*
X161089506Y-57610988D02*
X160828550Y-57610254D01*
X160650000Y-57610000D01*
X167805556Y-58045556D02*
X167563580Y-58005062D01*
X122198395Y-83240864D02*
X122189321Y-83502275D01*
X122185556Y-83621111D01*
X162348765Y-57625802D02*
X162092596Y-57621229D01*
X161938889Y-57618889D01*
D11*
X149730808Y-115927579D02*
G75*
G02*
X146730808Y-115927579I-1500000J0D01*
G01*
X146730808Y-115927579D02*
G75*
G02*
X149730808Y-115927579I1500000J0D01*
G01*
D10*
X122440249Y-102277800D02*
X122472144Y-102526064D01*
X122506867Y-102773949D01*
X122517347Y-102844694D01*
X123787188Y-106019297D02*
X123964059Y-106087324D01*
X140694444Y-122867778D02*
X140729012Y-122949753D01*
D11*
X187150000Y-88110000D02*
X187150000Y-94110000D01*
D10*
X123038889Y-77221111D02*
X122980617Y-77374198D01*
X168674691Y-58227284D02*
X168472222Y-58178889D01*
X187407778Y-106065556D02*
X187489753Y-106030988D01*
X143262346Y-124131975D02*
X143494444Y-124174444D01*
D11*
X140650000Y-91110000D02*
G75*
G02*
X137650000Y-91110000I-1500000J0D01*
G01*
X137650000Y-91110000D02*
G75*
G02*
X140650000Y-91110000I1500000J0D01*
G01*
X167730808Y-115927579D02*
G75*
G02*
X164730808Y-115927579I-1500000J0D01*
G01*
X164730808Y-115927579D02*
G75*
G02*
X167730808Y-115927579I1500000J0D01*
G01*
D10*
X189030494Y-100401358D02*
X189046288Y-100145816D01*
X189051235Y-100060617D01*
X122174691Y-84011235D02*
X122168879Y-84261229D01*
X122165802Y-84411235D01*
X142486735Y-58263061D02*
X142245077Y-58331471D01*
X142101247Y-58376440D01*
X165904321Y-57803580D02*
X165651561Y-57781702D01*
X165593210Y-57776914D01*
X122672469Y-78500123D02*
X122628025Y-78722346D01*
X150210494Y-124609012D02*
X150471449Y-124609745D01*
X150650000Y-124610000D01*
X142432716Y-123942346D02*
X142625309Y-123992716D01*
X188754938Y-103023580D02*
X188793457Y-102771728D01*
X123430000Y-76510000D02*
X123359877Y-76603827D01*
X123619388Y-105905918D02*
X123787188Y-106019297D01*
X167311728Y-57966543D02*
X167058185Y-57931092D01*
X167050000Y-57930000D01*
X141247531Y-123468272D02*
X141361111Y-123534444D01*
X123576173Y-76351975D02*
X123502099Y-76426049D01*
X149780864Y-124606049D02*
X150035955Y-124608078D01*
X150210494Y-124609012D01*
X170605556Y-59352222D02*
X170570988Y-59270247D01*
X143736420Y-124214938D02*
X143988272Y-124253457D01*
X122150988Y-85670494D02*
X122150254Y-85931449D01*
X122150000Y-86110000D01*
X147410494Y-124546790D02*
X147665113Y-124557228D01*
X147780864Y-124561605D01*
X122545062Y-79196420D02*
X122506543Y-79448272D01*
X169938889Y-58685556D02*
X169815432Y-58621358D01*
X122158889Y-84821111D02*
X122155564Y-85083453D01*
X122153951Y-85240864D01*
X168867284Y-58277654D02*
X168674691Y-58227284D01*
X188581111Y-103932222D02*
X188627531Y-103719877D01*
X122292222Y-81487778D02*
X122274251Y-81746250D01*
X122269506Y-81818642D01*
X122698753Y-103842426D02*
X122758377Y-104098799D01*
X122803061Y-104273265D01*
X187839342Y-76472812D02*
X187680612Y-76314082D01*
D11*
X160650000Y-57610000D02*
G75*
G02*
X158650000Y-59610000I-2000000J0D01*
G01*
D10*
X189146049Y-96979136D02*
X189148078Y-96724044D01*
X189149012Y-96549506D01*
X169682099Y-58559136D02*
X169538889Y-58498889D01*
X141466327Y-58630408D02*
X141247200Y-58751927D01*
X141216893Y-58770998D01*
D11*
X183548387Y-80529192D02*
G75*
G02*
X180548387Y-80529192I-1500000J0D01*
G01*
X180548387Y-80529192D02*
G75*
G02*
X183548387Y-80529192I1500000J0D01*
G01*
D10*
X148551235Y-124585309D02*
X148801229Y-124591120D01*
X148951235Y-124594198D01*
X122924321Y-77537160D02*
X122870000Y-77710000D01*
X144521605Y-124324568D02*
X144776682Y-124354233D01*
X144803086Y-124357160D01*
X188319383Y-104845802D02*
X188375679Y-104682840D01*
X140729012Y-122949753D02*
X140773457Y-123029753D01*
X170559297Y-122972812D02*
X170627324Y-122795941D01*
D11*
X132332421Y-82110000D02*
G75*
G02*
X129332421Y-82110000I-1500000J0D01*
G01*
X129332421Y-82110000D02*
G75*
G02*
X132332421Y-82110000I1500000J0D01*
G01*
D10*
X188897160Y-101956914D02*
X188924111Y-101701992D01*
X188927778Y-101665556D01*
D11*
X135650000Y-106110000D02*
G75*
G02*
X140650000Y-111109999I0J-5000000D01*
G01*
D10*
X122585556Y-78954444D02*
X122545062Y-79196420D01*
X141050000Y-123330000D02*
X141143827Y-123400123D01*
X145395679Y-124416420D02*
X145648438Y-124438297D01*
X145706790Y-124443086D01*
X162748765Y-57634691D02*
X162498770Y-57628879D01*
X162348765Y-57625802D01*
X169538889Y-123721111D02*
X169770169Y-123620516D01*
X169833673Y-123589592D01*
X123038889Y-104998889D02*
X123139483Y-105230169D01*
X123170408Y-105293673D01*
X122213210Y-82870494D02*
X122202771Y-83125113D01*
X122198395Y-83240864D01*
X170445918Y-123140612D02*
X170559297Y-122972812D01*
X188383560Y-77561247D02*
X188297878Y-77315922D01*
X188261111Y-77221111D01*
X187335941Y-76132676D02*
X187150000Y-76110000D01*
X122190816Y-98763061D02*
X122200506Y-99035926D01*
X122211457Y-99308744D01*
X122222562Y-99556712D01*
X123730247Y-76233457D02*
X123652222Y-76287778D01*
X148951235Y-124594198D02*
X149207403Y-124598770D01*
X149361111Y-124601111D01*
X170052469Y-58751728D02*
X169938889Y-58685556D01*
X122372222Y-80554444D02*
X122347867Y-80808593D01*
X122343580Y-80855679D01*
X122980617Y-77374198D02*
X122924321Y-77537160D01*
X148161111Y-124574444D02*
X148417122Y-124581827D01*
X148551235Y-124585309D01*
X170630247Y-59436173D02*
X170605556Y-59352222D01*
X122435432Y-79981605D02*
X122405766Y-80236682D01*
X122402840Y-80263086D01*
X124062099Y-76114938D02*
X123976173Y-76129753D01*
X145094444Y-124387778D02*
X145348593Y-124412132D01*
X145395679Y-124416420D01*
X122150000Y-96110000D02*
X122150742Y-96371483D01*
X122151759Y-96632965D01*
X122153326Y-96894442D01*
X122154535Y-97039705D01*
X123976173Y-76129753D02*
X123892222Y-76154444D01*
X122313265Y-101007959D02*
X122335653Y-101275247D01*
X122360153Y-101542349D01*
X122372222Y-101665556D01*
X140827778Y-123107778D02*
X140891975Y-123183827D01*
X122506543Y-79448272D02*
X122471092Y-79701814D01*
X122470000Y-79710000D01*
X144803086Y-124357160D02*
X145058007Y-124384111D01*
X145094444Y-124387778D01*
X140654938Y-122697901D02*
X140669753Y-122783827D01*
X140773457Y-123029753D02*
X140827778Y-123107778D01*
X187150000Y-106110000D02*
X187237901Y-106105062D01*
X188927778Y-80554444D02*
X188901813Y-80305535D01*
X188873592Y-80056872D01*
X188859751Y-79942200D01*
X188261111Y-77221111D02*
X188160516Y-76989830D01*
X188129592Y-76926327D01*
X170287188Y-123299342D02*
X170445918Y-123140612D01*
X187940123Y-105616173D02*
X188008272Y-105512469D01*
X188864568Y-102238395D02*
X188894233Y-101983317D01*
X188897160Y-101956914D01*
X189070000Y-99710000D02*
X189082312Y-99450906D01*
X189086790Y-99349506D01*
X143494444Y-124174444D02*
X143736420Y-124214938D01*
D11*
X187150000Y-76110000D02*
X175650000Y-76110000D01*
D10*
X122603515Y-103366236D02*
X122651928Y-103619649D01*
X122698753Y-103842426D01*
X188671975Y-103497654D02*
X188714444Y-103265556D01*
X141914198Y-123779383D02*
X142077160Y-123835679D01*
X140740703Y-59247188D02*
X140672676Y-59424059D01*
X123359877Y-76603827D02*
X123291728Y-76707531D01*
D11*
X124150000Y-94110001D02*
G75*
G02*
X122150000Y-96110000I-2000000J1D01*
G01*
X189150000Y-96110000D02*
G75*
G02*
X187150000Y-94110000I0J2000000D01*
G01*
D10*
X145094444Y-57832222D02*
X144845535Y-57858186D01*
X144596872Y-57886407D01*
X144482200Y-57900249D01*
X188129592Y-76926327D02*
X188008072Y-76707200D01*
X187989002Y-76676893D01*
X146358642Y-124490494D02*
X146614183Y-124506288D01*
X146699383Y-124511235D01*
X167906236Y-124156485D02*
X168159649Y-124108071D01*
X168382426Y-124061247D01*
X187569753Y-105986543D02*
X187647778Y-105932222D01*
X148835941Y-57628141D02*
X148573724Y-57634157D01*
X148311531Y-57641117D01*
X148049367Y-57649092D01*
X147996939Y-57650816D01*
X170408025Y-59036173D02*
X170333951Y-58962099D01*
D11*
X175650000Y-76110000D02*
G75*
G02*
X170650000Y-71110000I0J5000000D01*
G01*
D10*
X170570988Y-59270247D02*
X170526543Y-59190247D01*
X143040123Y-124087531D02*
X143262346Y-124131975D01*
X189007778Y-100732222D02*
X189025748Y-100473749D01*
X189030494Y-100401358D01*
X188200864Y-105142099D02*
X188261111Y-104998889D01*
X188601247Y-78377574D02*
X188541622Y-78121200D01*
X188496939Y-77946735D01*
X169833673Y-123589592D02*
X170052799Y-123468072D01*
X170083107Y-123449002D01*
X141012812Y-58920658D02*
X140854082Y-59079388D01*
X187512812Y-76200703D02*
X187335941Y-76132676D01*
D11*
X158650000Y-122610000D02*
X152649999Y-122610000D01*
D10*
X169815432Y-58621358D02*
X169682099Y-58559136D01*
X165547959Y-124446735D02*
X165815247Y-124424346D01*
X166082349Y-124399846D01*
X166205556Y-124387778D01*
X145752041Y-57773265D02*
X145484752Y-57795653D01*
X145217650Y-57820153D01*
X145094444Y-57832222D01*
X142625309Y-123992716D02*
X142827778Y-124041111D01*
X141761111Y-58498889D02*
X141529830Y-58599483D01*
X141466327Y-58630408D01*
X140672676Y-59424059D02*
X140650000Y-59610000D01*
X188714444Y-103265556D02*
X188754938Y-103023580D01*
D11*
X122150000Y-86110000D02*
G75*
G02*
X124150000Y-88109999I0J-2000000D01*
G01*
D10*
X122343580Y-80855679D02*
X122321702Y-81108438D01*
X122316914Y-81166790D01*
D11*
X152649999Y-59610000D02*
X158650000Y-59610000D01*
D10*
X189051235Y-100060617D02*
X189064973Y-99808624D01*
X189070000Y-99710000D01*
X164845011Y-124496621D02*
X165108716Y-124479336D01*
X165372306Y-124460371D01*
X165547959Y-124446735D01*
X141484568Y-123598642D02*
X141617901Y-123660864D01*
D11*
X132332421Y-100110000D02*
G75*
G02*
X129332421Y-100110000I-1500000J0D01*
G01*
X129332421Y-100110000D02*
G75*
G02*
X132332421Y-100110000I1500000J0D01*
G01*
X173650000Y-91110000D02*
G75*
G02*
X170650000Y-91110000I-1500000J0D01*
G01*
X170650000Y-91110000D02*
G75*
G02*
X173650000Y-91110000I1500000J0D01*
G01*
X150650000Y-124610000D02*
G75*
G02*
X152649999Y-122610000I2000000J0D01*
G01*
D10*
X187989002Y-76676893D02*
X187839342Y-76472812D01*
X123892222Y-76154444D02*
X123810247Y-76189012D01*
X168813265Y-123956939D02*
X169054922Y-123888528D01*
X169198753Y-123843560D01*
X122263379Y-100305011D02*
X122280663Y-100568716D01*
X122299628Y-100832306D01*
X122313265Y-101007959D01*
X189086790Y-99349506D02*
X189097228Y-99094886D01*
X189101605Y-98979136D01*
X122153951Y-85240864D02*
X122151921Y-85495955D01*
X122150988Y-85670494D01*
X123225556Y-76821111D02*
X123161358Y-76944568D01*
X143393764Y-58063515D02*
X143140350Y-58111928D01*
X142917574Y-58158753D01*
X161938889Y-57618889D02*
X161676546Y-57615564D01*
X161519136Y-57613951D01*
D11*
X148150000Y-64711613D02*
G75*
G02*
X145150000Y-64711613I-1500000J0D01*
G01*
X145150000Y-64711613D02*
G75*
G02*
X148150000Y-64711613I1500000J0D01*
G01*
D10*
X122628025Y-78722346D02*
X122585556Y-78954444D01*
X189141111Y-97398889D02*
X189144435Y-97136546D01*
X189146049Y-96979136D01*
X189077438Y-82663288D02*
X189064692Y-82405990D01*
X189050626Y-82148762D01*
X189036621Y-81914989D01*
D11*
X140650000Y-59610000D02*
X140650000Y-71110000D01*
D10*
X187237901Y-106105062D02*
X187323827Y-106090247D01*
X188696485Y-78853764D02*
X188648071Y-78600350D01*
X188601247Y-78377574D01*
D11*
X175650000Y-106110000D02*
X187150000Y-106110000D01*
D10*
X140650000Y-122610000D02*
X140654938Y-122697901D01*
X188956420Y-101364321D02*
X188978297Y-101111561D01*
X188983086Y-101053210D01*
X168037654Y-58088025D02*
X167805556Y-58045556D01*
X170250000Y-58890000D02*
X170156173Y-58819877D01*
X189134198Y-97808765D02*
X189138770Y-97552596D01*
X189141111Y-97398889D01*
X122718889Y-78287778D02*
X122672469Y-78500123D01*
D11*
X124150000Y-94110001D02*
X124150000Y-88109999D01*
D10*
X142250000Y-123890000D02*
X142432716Y-123942346D01*
X189145465Y-85180295D02*
X189142354Y-84903919D01*
X189138191Y-84627555D01*
X189133013Y-84351208D01*
X189131859Y-84295941D01*
D11*
X140650000Y-111109999D02*
X140650000Y-122610000D01*
D10*
X122916440Y-104658753D02*
X123002121Y-104904077D01*
X123038889Y-104998889D01*
X189109184Y-83456939D02*
X189099493Y-83184073D01*
X189088542Y-82911255D01*
X189077438Y-82663288D01*
X188008272Y-105512469D02*
X188074444Y-105398889D01*
X122168141Y-97924059D02*
X122174157Y-98186275D01*
X122181117Y-98448468D01*
X122189092Y-98710632D01*
X122190816Y-98763061D01*
D11*
X187150000Y-88110000D02*
G75*
G02*
X189150000Y-86110000I2000000J0D01*
G01*
D10*
X122372222Y-101665556D02*
X122398186Y-101914464D01*
X122426407Y-102163127D01*
X122440249Y-102277800D01*
X163303061Y-124569184D02*
X163575926Y-124559493D01*
X163848744Y-124548542D01*
X164096712Y-124537438D01*
X141361111Y-123534444D02*
X141484568Y-123598642D01*
X122316914Y-81166790D02*
X122297392Y-81417544D01*
X122292222Y-81487778D01*
X145706790Y-124443086D02*
X145957544Y-124462607D01*
X146027778Y-124467778D01*
X187323827Y-106090247D02*
X187407778Y-106065556D01*
X169385802Y-58440617D02*
X169222840Y-58384321D01*
X122269506Y-81818642D02*
X122253711Y-82074183D01*
X122248765Y-82159383D01*
X168472222Y-58178889D02*
X168259877Y-58132469D01*
X122222562Y-99556712D02*
X122235307Y-99814009D01*
X122249373Y-100071237D01*
X122263379Y-100305011D01*
X170650000Y-59610000D02*
X170645062Y-59522099D01*
X122517347Y-102844694D02*
X122558412Y-103105798D01*
X122603515Y-103366236D01*
X170526543Y-59190247D02*
X170472222Y-59112222D01*
X123310998Y-105543107D02*
X123460658Y-105747188D01*
X169222840Y-58384321D02*
X169050000Y-58330000D01*
D11*
X157150000Y-107610000D02*
G75*
G02*
X154150000Y-107610000I-1500000J0D01*
G01*
X154150000Y-107610000D02*
G75*
G02*
X157150000Y-107610000I1500000J0D01*
G01*
D10*
X122817654Y-77892716D02*
X122767284Y-78085309D01*
X123652222Y-76287778D02*
X123576173Y-76351975D01*
X189036621Y-81914989D02*
X189019336Y-81651283D01*
X189000371Y-81387693D01*
X188986735Y-81212041D01*
X141617901Y-123660864D02*
X141761111Y-123721111D01*
X188496939Y-77946735D02*
X188428528Y-77705077D01*
X188383560Y-77561247D01*
X161519136Y-57613951D02*
X161264044Y-57611921D01*
X161089506Y-57610988D01*
X140891975Y-123183827D02*
X140966049Y-123257901D01*
X189101605Y-98979136D02*
X189110678Y-98717724D01*
X189114444Y-98598889D01*
X189114444Y-98598889D02*
X189121827Y-98342877D01*
X189125309Y-98208765D01*
X188927778Y-101665556D02*
X188952132Y-101411406D01*
X188956420Y-101364321D01*
X187723827Y-105868025D02*
X187797901Y-105793951D01*
X166817800Y-124319751D02*
X167066064Y-124287855D01*
X167313949Y-124253132D01*
X167384694Y-124242653D01*
X163138889Y-57645556D02*
X162882877Y-57638172D01*
X162748765Y-57634691D01*
X164941358Y-57729506D02*
X164685816Y-57713711D01*
X164600617Y-57708765D01*
X164096712Y-124537438D02*
X164354009Y-124524692D01*
X164611237Y-124510626D01*
X164845011Y-124496621D01*
X169198753Y-123843560D02*
X169444077Y-123757878D01*
X169538889Y-123721111D01*
X188482346Y-104327284D02*
X188532716Y-104134691D01*
X170156173Y-58819877D02*
X170052469Y-58751728D01*
X170645062Y-59522099D02*
X170630247Y-59436173D01*
X187647778Y-105932222D02*
X187723827Y-105868025D01*
X187870000Y-105710000D02*
X187940123Y-105616173D01*
X163889506Y-57673210D02*
X163634886Y-57662771D01*
X163519136Y-57658395D01*
X169538889Y-58498889D02*
X169385802Y-58440617D01*
D11*
X135650001Y-76110000D02*
X124150000Y-76110000D01*
D10*
X169050000Y-58330000D02*
X168867284Y-58277654D01*
X188261111Y-104998889D02*
X188319383Y-104845802D01*
X123291728Y-76707531D02*
X123225556Y-76821111D01*
X167050000Y-57930000D02*
X166795381Y-57897500D01*
X166778395Y-57895432D01*
D11*
X152649999Y-59610000D02*
G75*
G02*
X150650000Y-57610000I1J2000000D01*
G01*
D10*
X166778395Y-57895432D02*
X166523317Y-57865766D01*
X166496914Y-57862840D01*
X165272222Y-57752222D02*
X165013749Y-57734251D01*
X164941358Y-57729506D01*
X168259877Y-58132469D02*
X168037654Y-58088025D01*
X170472222Y-59112222D02*
X170408025Y-59036173D01*
X188627531Y-103719877D02*
X188671975Y-103497654D01*
D11*
X157150000Y-74610000D02*
G75*
G02*
X154150000Y-74610000I-1500000J0D01*
G01*
X154150000Y-74610000D02*
G75*
G02*
X157150000Y-74610000I1500000J0D01*
G01*
D10*
X143988272Y-124253457D02*
X144241814Y-124288907D01*
X144250000Y-124290000D01*
X122402840Y-80263086D02*
X122375888Y-80518007D01*
X122372222Y-80554444D01*
X188782653Y-79375306D02*
X188741587Y-79114201D01*
X188696485Y-78853764D01*
M02*
