%TF.GenerationSoftware,KiCad,Pcbnew,8.0.1*%
%TF.CreationDate,2024-03-29T22:51:30+02:00*%
%TF.ProjectId,Veis,56656973-2e6b-4696-9361-645f70636258,rev?*%
%TF.SameCoordinates,Original*%
%TF.FileFunction,Copper,L1,Top*%
%TF.FilePolarity,Positive*%
%FSLAX46Y46*%
G04 Gerber Fmt 4.6, Leading zero omitted, Abs format (unit mm)*
G04 Created by KiCad (PCBNEW 8.0.1) date 2024-03-29 22:51:30*
%MOMM*%
%LPD*%
G01*
G04 APERTURE LIST*
%ADD10C,0.300000*%
%TA.AperFunction,NonConductor*%
%ADD11C,0.300000*%
%TD*%
%TA.AperFunction,EtchedComponent*%
%ADD12C,0.000000*%
%TD*%
G04 APERTURE END LIST*
D10*
D11*
X163364594Y-97477960D02*
X162219755Y-98622800D01*
X162219755Y-98622800D02*
X162152411Y-98824830D01*
X162152411Y-98824830D02*
X162152411Y-98959517D01*
X162152411Y-98959517D02*
X162219755Y-99161548D01*
X162219755Y-99161548D02*
X162489129Y-99430922D01*
X162489129Y-99430922D02*
X162691159Y-99498265D01*
X162691159Y-99498265D02*
X162825846Y-99498265D01*
X162825846Y-99498265D02*
X163027877Y-99430922D01*
X163027877Y-99430922D02*
X164172717Y-98286082D01*
X163431938Y-100373731D02*
X164846151Y-98959517D01*
X164172716Y-99632952D02*
X164980839Y-100441074D01*
X164240060Y-101181853D02*
X165654274Y-99767639D01*
X166125678Y-101585914D02*
X165654273Y-101114509D01*
X164913495Y-101855288D02*
X166327708Y-100441074D01*
X166327708Y-100441074D02*
X167001144Y-101114509D01*
D10*
D11*
X161030247Y-86227066D02*
X161232278Y-86126050D01*
X161232278Y-86126050D02*
X161484816Y-85873512D01*
X161484816Y-85873512D02*
X161535323Y-85721989D01*
X161535323Y-85721989D02*
X161535323Y-85620974D01*
X161535323Y-85620974D02*
X161484816Y-85469451D01*
X161484816Y-85469451D02*
X161383801Y-85368436D01*
X161383801Y-85368436D02*
X161232278Y-85317928D01*
X161232278Y-85317928D02*
X161131262Y-85317928D01*
X161131262Y-85317928D02*
X160979740Y-85368436D01*
X160979740Y-85368436D02*
X160727201Y-85519959D01*
X160727201Y-85519959D02*
X160575679Y-85570466D01*
X160575679Y-85570466D02*
X160474663Y-85570466D01*
X160474663Y-85570466D02*
X160323140Y-85519959D01*
X160323140Y-85519959D02*
X160222125Y-85418944D01*
X160222125Y-85418944D02*
X160171618Y-85267421D01*
X160171618Y-85267421D02*
X160171618Y-85166405D01*
X160171618Y-85166405D02*
X160222125Y-85014883D01*
X160222125Y-85014883D02*
X160474663Y-84762344D01*
X160474663Y-84762344D02*
X160676694Y-84661329D01*
X160929232Y-84307776D02*
X162343445Y-85014883D01*
X162343445Y-85014883D02*
X161636338Y-83600669D01*
X162040399Y-83398639D02*
X162040399Y-83297624D01*
X162040399Y-83297624D02*
X162090907Y-83146101D01*
X162090907Y-83146101D02*
X162343445Y-82893563D01*
X162343445Y-82893563D02*
X162494968Y-82843055D01*
X162494968Y-82843055D02*
X162595983Y-82843055D01*
X162595983Y-82843055D02*
X162747506Y-82893563D01*
X162747506Y-82893563D02*
X162848521Y-82994578D01*
X162848521Y-82994578D02*
X162949536Y-83196609D01*
X162949536Y-83196609D02*
X162949536Y-84408792D01*
X162949536Y-84408792D02*
X163606136Y-83752192D01*
X163202074Y-82034933D02*
X163303090Y-81933918D01*
X163303090Y-81933918D02*
X163454612Y-81883411D01*
X163454612Y-81883411D02*
X163555628Y-81883411D01*
X163555628Y-81883411D02*
X163707151Y-81933918D01*
X163707151Y-81933918D02*
X163959689Y-82085441D01*
X163959689Y-82085441D02*
X164212227Y-82337979D01*
X164212227Y-82337979D02*
X164363750Y-82590517D01*
X164363750Y-82590517D02*
X164414257Y-82742040D01*
X164414257Y-82742040D02*
X164414257Y-82843055D01*
X164414257Y-82843055D02*
X164363750Y-82994578D01*
X164363750Y-82994578D02*
X164262734Y-83095594D01*
X164262734Y-83095594D02*
X164111212Y-83146101D01*
X164111212Y-83146101D02*
X164010196Y-83146101D01*
X164010196Y-83146101D02*
X163858673Y-83095594D01*
X163858673Y-83095594D02*
X163606135Y-82944071D01*
X163606135Y-82944071D02*
X163353597Y-82691533D01*
X163353597Y-82691533D02*
X163202074Y-82438994D01*
X163202074Y-82438994D02*
X163151567Y-82287472D01*
X163151567Y-82287472D02*
X163151567Y-82186456D01*
X163151567Y-82186456D02*
X163202074Y-82034933D01*
X164818318Y-81125796D02*
X165525425Y-81832903D01*
X164161719Y-80974274D02*
X164666795Y-81984426D01*
X164666795Y-81984426D02*
X165323394Y-81327827D01*
X165222379Y-80014629D02*
X165323394Y-79913614D01*
X165323394Y-79913614D02*
X165474917Y-79863106D01*
X165474917Y-79863106D02*
X165575932Y-79863106D01*
X165575932Y-79863106D02*
X165727455Y-79913614D01*
X165727455Y-79913614D02*
X165979993Y-80065137D01*
X165979993Y-80065137D02*
X166232531Y-80317675D01*
X166232531Y-80317675D02*
X166384054Y-80570213D01*
X166384054Y-80570213D02*
X166434562Y-80721736D01*
X166434562Y-80721736D02*
X166434562Y-80822751D01*
X166434562Y-80822751D02*
X166384054Y-80974274D01*
X166384054Y-80974274D02*
X166283039Y-81075289D01*
X166283039Y-81075289D02*
X166131516Y-81125797D01*
X166131516Y-81125797D02*
X166030501Y-81125797D01*
X166030501Y-81125797D02*
X165878978Y-81075289D01*
X165878978Y-81075289D02*
X165626440Y-80923766D01*
X165626440Y-80923766D02*
X165373902Y-80671228D01*
X165373902Y-80671228D02*
X165222379Y-80418690D01*
X165222379Y-80418690D02*
X165171871Y-80267167D01*
X165171871Y-80267167D02*
X165171871Y-80166152D01*
X165171871Y-80166152D02*
X165222379Y-80014629D01*
X166687100Y-79863106D02*
X167495222Y-79054984D01*
X167242684Y-77994324D02*
X167899283Y-77337725D01*
X167899283Y-77337725D02*
X167949790Y-78095339D01*
X167949790Y-78095339D02*
X168101313Y-77943816D01*
X168101313Y-77943816D02*
X168252836Y-77893309D01*
X168252836Y-77893309D02*
X168353851Y-77893309D01*
X168353851Y-77893309D02*
X168505374Y-77943816D01*
X168505374Y-77943816D02*
X168757913Y-78196355D01*
X168757913Y-78196355D02*
X168808420Y-78347877D01*
X168808420Y-78347877D02*
X168808420Y-78448893D01*
X168808420Y-78448893D02*
X168757913Y-78600416D01*
X168757913Y-78600416D02*
X168454867Y-78903461D01*
X168454867Y-78903461D02*
X168303344Y-78953969D01*
X168303344Y-78953969D02*
X168202329Y-78953969D01*
D10*
D11*
X140960381Y-77437487D02*
X141095068Y-77706861D01*
X141095068Y-77706861D02*
X141431785Y-78043578D01*
X141431785Y-78043578D02*
X141633816Y-78110922D01*
X141633816Y-78110922D02*
X141768503Y-78110922D01*
X141768503Y-78110922D02*
X141970533Y-78043578D01*
X141970533Y-78043578D02*
X142105220Y-77908891D01*
X142105220Y-77908891D02*
X142172564Y-77706861D01*
X142172564Y-77706861D02*
X142172564Y-77572174D01*
X142172564Y-77572174D02*
X142105220Y-77370143D01*
X142105220Y-77370143D02*
X141903190Y-77033426D01*
X141903190Y-77033426D02*
X141835846Y-76831395D01*
X141835846Y-76831395D02*
X141835846Y-76696708D01*
X141835846Y-76696708D02*
X141903190Y-76494678D01*
X141903190Y-76494678D02*
X142037877Y-76359991D01*
X142037877Y-76359991D02*
X142239907Y-76292647D01*
X142239907Y-76292647D02*
X142374594Y-76292647D01*
X142374594Y-76292647D02*
X142576625Y-76359991D01*
X142576625Y-76359991D02*
X142913343Y-76696708D01*
X142913343Y-76696708D02*
X143048030Y-76966082D01*
X142643969Y-78447639D02*
X143317404Y-79121074D01*
X142105221Y-78717013D02*
X143990839Y-77774204D01*
X143990839Y-77774204D02*
X143048030Y-79659822D01*
X144731617Y-78514983D02*
X145539739Y-79323105D01*
X143721465Y-80333257D02*
X145135678Y-78919044D01*
X145539740Y-81882158D02*
X145405053Y-81882158D01*
X145405053Y-81882158D02*
X145135679Y-81747471D01*
X145135679Y-81747471D02*
X145000992Y-81612784D01*
X145000992Y-81612784D02*
X144866305Y-81343410D01*
X144866305Y-81343410D02*
X144866305Y-81074036D01*
X144866305Y-81074036D02*
X144933648Y-80872006D01*
X144933648Y-80872006D02*
X145135679Y-80535288D01*
X145135679Y-80535288D02*
X145337709Y-80333258D01*
X145337709Y-80333258D02*
X145674427Y-80131227D01*
X145674427Y-80131227D02*
X145876457Y-80063884D01*
X145876457Y-80063884D02*
X146145831Y-80063884D01*
X146145831Y-80063884D02*
X146415205Y-80198571D01*
X146415205Y-80198571D02*
X146549892Y-80333258D01*
X146549892Y-80333258D02*
X146684579Y-80602632D01*
X146684579Y-80602632D02*
X146684579Y-80737319D01*
X147694732Y-81478097D02*
X147964106Y-81747471D01*
X147964106Y-81747471D02*
X148031449Y-81949502D01*
X148031449Y-81949502D02*
X148031449Y-82218876D01*
X148031449Y-82218876D02*
X147829419Y-82555593D01*
X147829419Y-82555593D02*
X147358014Y-83026998D01*
X147358014Y-83026998D02*
X147021297Y-83229028D01*
X147021297Y-83229028D02*
X146751923Y-83229028D01*
X146751923Y-83229028D02*
X146549892Y-83161685D01*
X146549892Y-83161685D02*
X146280518Y-82892311D01*
X146280518Y-82892311D02*
X146213175Y-82690280D01*
X146213175Y-82690280D02*
X146213175Y-82420906D01*
X146213175Y-82420906D02*
X146415205Y-82084189D01*
X146415205Y-82084189D02*
X146886610Y-81612784D01*
X146886610Y-81612784D02*
X147223327Y-81410754D01*
X147223327Y-81410754D02*
X147492701Y-81410754D01*
X147492701Y-81410754D02*
X147694732Y-81478097D01*
X147492701Y-84104494D02*
X148906915Y-82690280D01*
X148906915Y-82690280D02*
X148368167Y-84171837D01*
X148368167Y-84171837D02*
X149849724Y-83633089D01*
X149849724Y-83633089D02*
X148435510Y-85047303D01*
X149108945Y-85720738D02*
X150523159Y-84306524D01*
X150523159Y-84306524D02*
X149984411Y-85788081D01*
X149984411Y-85788081D02*
X151465968Y-85249333D01*
X151465968Y-85249333D02*
X150051754Y-86663547D01*
D10*
D11*
X144790247Y-102687066D02*
X144992278Y-102586050D01*
X144992278Y-102586050D02*
X145244816Y-102333512D01*
X145244816Y-102333512D02*
X145295323Y-102181989D01*
X145295323Y-102181989D02*
X145295323Y-102080974D01*
X145295323Y-102080974D02*
X145244816Y-101929451D01*
X145244816Y-101929451D02*
X145143801Y-101828436D01*
X145143801Y-101828436D02*
X144992278Y-101777928D01*
X144992278Y-101777928D02*
X144891262Y-101777928D01*
X144891262Y-101777928D02*
X144739740Y-101828436D01*
X144739740Y-101828436D02*
X144487201Y-101979959D01*
X144487201Y-101979959D02*
X144335679Y-102030466D01*
X144335679Y-102030466D02*
X144234663Y-102030466D01*
X144234663Y-102030466D02*
X144083140Y-101979959D01*
X144083140Y-101979959D02*
X143982125Y-101878944D01*
X143982125Y-101878944D02*
X143931618Y-101727421D01*
X143931618Y-101727421D02*
X143931618Y-101626405D01*
X143931618Y-101626405D02*
X143982125Y-101474883D01*
X143982125Y-101474883D02*
X144234663Y-101222344D01*
X144234663Y-101222344D02*
X144436694Y-101121329D01*
X144689232Y-100767776D02*
X146103445Y-101474883D01*
X146103445Y-101474883D02*
X145396338Y-100060669D01*
X145800399Y-99858639D02*
X145800399Y-99757624D01*
X145800399Y-99757624D02*
X145850907Y-99606101D01*
X145850907Y-99606101D02*
X146103445Y-99353563D01*
X146103445Y-99353563D02*
X146254968Y-99303055D01*
X146254968Y-99303055D02*
X146355983Y-99303055D01*
X146355983Y-99303055D02*
X146507506Y-99353563D01*
X146507506Y-99353563D02*
X146608521Y-99454578D01*
X146608521Y-99454578D02*
X146709536Y-99656609D01*
X146709536Y-99656609D02*
X146709536Y-100868792D01*
X146709536Y-100868792D02*
X147366136Y-100212192D01*
X147820704Y-99757624D02*
X146760044Y-98696964D01*
X148325780Y-99252548D02*
X147265120Y-98191887D01*
X147265120Y-98191887D02*
X147669181Y-97787826D01*
X147669181Y-97787826D02*
X147820704Y-97737319D01*
X147820704Y-97737319D02*
X147921719Y-97737319D01*
X147921719Y-97737319D02*
X148073242Y-97787826D01*
X148073242Y-97787826D02*
X148224765Y-97939349D01*
X148224765Y-97939349D02*
X148275273Y-98090872D01*
X148275273Y-98090872D02*
X148275273Y-98191887D01*
X148275273Y-98191887D02*
X148224765Y-98343410D01*
X148224765Y-98343410D02*
X147820704Y-98747471D01*
X148224765Y-97232243D02*
X149537964Y-98040365D01*
X149537964Y-98040365D02*
X148982380Y-97080720D01*
X148982380Y-97080720D02*
X149942025Y-97636304D01*
X149942025Y-97636304D02*
X149133903Y-96323105D01*
D12*
%TA.AperFunction,EtchedComponent*%
%TO.C,V*%
G36*
X169770895Y-60212418D02*
G01*
X170005071Y-60447456D01*
X170226721Y-60747893D01*
X170307920Y-60889752D01*
X170519587Y-61308761D01*
X170539881Y-66558094D01*
X170560176Y-71807427D01*
X163110195Y-80020094D01*
X162198240Y-81024960D01*
X161317153Y-81994938D01*
X160473671Y-82922652D01*
X159674534Y-83800727D01*
X158926481Y-84621788D01*
X158236251Y-85378459D01*
X157610583Y-86063365D01*
X157056215Y-86669131D01*
X156579888Y-87188381D01*
X156188340Y-87613739D01*
X155888309Y-87937831D01*
X155686536Y-88153281D01*
X155589760Y-88252714D01*
X155582323Y-88258786D01*
X155517017Y-88200416D01*
X155344899Y-88023728D01*
X155072692Y-87736038D01*
X154707116Y-87344662D01*
X154254894Y-86856917D01*
X153722748Y-86280117D01*
X153117399Y-85621580D01*
X152445570Y-84888620D01*
X151713983Y-84088555D01*
X150929359Y-83228700D01*
X150098420Y-82316371D01*
X149227888Y-81358884D01*
X148324485Y-80363556D01*
X148043628Y-80053783D01*
X143240911Y-74755253D01*
X154345256Y-74755253D01*
X154445332Y-75150872D01*
X154660127Y-75488648D01*
X154963002Y-75750258D01*
X155327316Y-75917379D01*
X155726427Y-75971686D01*
X156133696Y-75894856D01*
X156439663Y-75732268D01*
X156668091Y-75497445D01*
X156864432Y-75172039D01*
X156989247Y-74830491D01*
X157013394Y-74649325D01*
X156959389Y-74369787D01*
X156818519Y-74048970D01*
X156628866Y-73758469D01*
X156444554Y-73579869D01*
X156032579Y-73399610D01*
X155600835Y-73362311D01*
X155183970Y-73455509D01*
X154816630Y-73666742D01*
X154533464Y-73983547D01*
X154386542Y-74320116D01*
X154345256Y-74755253D01*
X143240911Y-74755253D01*
X140582822Y-71822753D01*
X140607538Y-66523424D01*
X140614798Y-64966796D01*
X145191252Y-64966796D01*
X145299092Y-65364358D01*
X145525785Y-65722476D01*
X145877549Y-66014004D01*
X146044265Y-66101204D01*
X146512068Y-66241063D01*
X146965143Y-66218586D01*
X147337719Y-66084295D01*
X147706663Y-65820833D01*
X147924553Y-65531020D01*
X148109795Y-65070731D01*
X148132588Y-64775927D01*
X163195920Y-64775927D01*
X163253291Y-65217405D01*
X163440203Y-65591581D01*
X163675195Y-65854739D01*
X163984408Y-66094012D01*
X164308996Y-66213977D01*
X164713026Y-66236473D01*
X164784253Y-66232802D01*
X165135322Y-66179420D01*
X165416031Y-66047847D01*
X165546253Y-65952372D01*
X165897909Y-65576209D01*
X166103874Y-65140629D01*
X166157759Y-64672692D01*
X166053181Y-64199459D01*
X165991837Y-64064184D01*
X165715006Y-63677207D01*
X165366394Y-63420736D01*
X164973159Y-63287857D01*
X164562461Y-63271657D01*
X164161461Y-63365222D01*
X163797318Y-63561637D01*
X163497191Y-63853989D01*
X163288241Y-64235364D01*
X163197627Y-64698848D01*
X163195920Y-64775927D01*
X148132588Y-64775927D01*
X148145263Y-64611981D01*
X148045527Y-64181456D01*
X147825156Y-63805840D01*
X147498719Y-63511817D01*
X147080786Y-63326072D01*
X146691930Y-63273389D01*
X146217225Y-63337508D01*
X145824066Y-63525070D01*
X145518672Y-63808928D01*
X145307260Y-64161933D01*
X145196047Y-64556939D01*
X145191252Y-64966796D01*
X140614798Y-64966796D01*
X140632254Y-61224094D01*
X140843920Y-60850662D01*
X141046657Y-60561237D01*
X141298595Y-60287566D01*
X141380946Y-60215662D01*
X141706305Y-59954094D01*
X155575920Y-59954094D01*
X169445536Y-59954094D01*
X169770895Y-60212418D01*
G37*
%TD.AperFunction*%
%TA.AperFunction,EtchedComponent*%
G36*
X174603578Y-76143068D02*
G01*
X174656459Y-76163999D01*
X174805576Y-76181006D01*
X175059566Y-76194171D01*
X175427060Y-76203575D01*
X175916695Y-76209299D01*
X176537104Y-76211425D01*
X177296922Y-76210034D01*
X178204782Y-76205206D01*
X179269319Y-76197024D01*
X179816763Y-76192130D01*
X180991718Y-76182252D01*
X182007052Y-76175999D01*
X182872442Y-76173459D01*
X183597563Y-76174723D01*
X184192093Y-76179879D01*
X184665706Y-76189017D01*
X185028080Y-76202226D01*
X185288889Y-76219595D01*
X185457811Y-76241215D01*
X185473559Y-76244349D01*
X185983935Y-76434728D01*
X186434714Y-76764695D01*
X186789331Y-77206078D01*
X186842007Y-77298691D01*
X187029587Y-77649427D01*
X187051789Y-90971533D01*
X187054650Y-93003573D01*
X187056173Y-94867514D01*
X187056353Y-96564586D01*
X187055184Y-98096019D01*
X187052659Y-99463043D01*
X187048774Y-100666887D01*
X187043521Y-101708782D01*
X187036895Y-102589956D01*
X187028891Y-103311639D01*
X187019502Y-103875062D01*
X187008722Y-104281454D01*
X186996545Y-104532044D01*
X186985985Y-104620473D01*
X186801803Y-105041469D01*
X186503408Y-105443196D01*
X186140638Y-105764426D01*
X185973263Y-105864594D01*
X185596707Y-106055094D01*
X179984314Y-106055094D01*
X178828229Y-106053894D01*
X177789795Y-106050357D01*
X176875764Y-106044582D01*
X176092886Y-106036664D01*
X175447911Y-106026702D01*
X174947589Y-106014792D01*
X174598672Y-106001030D01*
X174407910Y-105985515D01*
X174371920Y-105974451D01*
X174310878Y-105908009D01*
X174132731Y-105733840D01*
X173844946Y-105458913D01*
X173454989Y-105090198D01*
X172970328Y-104634665D01*
X172398429Y-104099284D01*
X171746761Y-103491025D01*
X171022789Y-102816857D01*
X170233980Y-102083750D01*
X169387803Y-101298675D01*
X168491723Y-100468600D01*
X167553208Y-99600497D01*
X166603754Y-98723513D01*
X166574678Y-98696671D01*
X180590502Y-98696671D01*
X180634309Y-98932159D01*
X180833899Y-99385511D01*
X181143546Y-99735693D01*
X181533798Y-99969085D01*
X181975205Y-100072071D01*
X182438314Y-100031031D01*
X182753920Y-99912227D01*
X183119684Y-99641962D01*
X183391067Y-99271996D01*
X183548636Y-98845121D01*
X183572955Y-98404133D01*
X183531555Y-98199891D01*
X183317158Y-97736999D01*
X182985498Y-97395039D01*
X182718242Y-97240983D01*
X182255885Y-97110671D01*
X181806493Y-97125440D01*
X181393966Y-97265896D01*
X181042204Y-97512642D01*
X180775106Y-97846283D01*
X180616572Y-98247425D01*
X180590502Y-98696671D01*
X166574678Y-98696671D01*
X165623560Y-97818623D01*
X164673351Y-96941149D01*
X163761058Y-96098426D01*
X162894609Y-95297793D01*
X162081936Y-94546584D01*
X161330967Y-93852137D01*
X160649633Y-93221787D01*
X160045864Y-92662871D01*
X159527589Y-92182725D01*
X159102738Y-91788686D01*
X158779242Y-91488089D01*
X158565030Y-91288272D01*
X158519330Y-91245121D01*
X170857356Y-91245121D01*
X170961854Y-91662605D01*
X171191292Y-92029772D01*
X171525435Y-92303359D01*
X171612171Y-92347232D01*
X171977808Y-92475325D01*
X172301549Y-92485843D01*
X172657394Y-92378453D01*
X172740338Y-92342157D01*
X173102559Y-92092667D01*
X173357935Y-91742879D01*
X173488434Y-91332965D01*
X173476022Y-90903095D01*
X173442382Y-90778200D01*
X173232059Y-90382810D01*
X172912890Y-90080810D01*
X172521750Y-89893026D01*
X172095511Y-89840283D01*
X171850114Y-89878861D01*
X171509276Y-90043614D01*
X171195421Y-90320436D01*
X170964004Y-90654475D01*
X170898038Y-90820584D01*
X170857356Y-91245121D01*
X158519330Y-91245121D01*
X158471579Y-91200034D01*
X158107570Y-90846849D01*
X163846285Y-85687471D01*
X164756681Y-84868986D01*
X165681907Y-84037176D01*
X166607215Y-83205300D01*
X167517856Y-82386618D01*
X168399082Y-81594387D01*
X169236145Y-80841868D01*
X169727584Y-80400068D01*
X180605876Y-80400068D01*
X180630319Y-80884400D01*
X180644201Y-80943942D01*
X180803916Y-81315727D01*
X181065579Y-81654932D01*
X181383143Y-81910030D01*
X181592058Y-82004631D01*
X181998383Y-82058317D01*
X182442267Y-82008207D01*
X182837029Y-81865567D01*
X182887642Y-81836273D01*
X183237326Y-81530910D01*
X183460610Y-81148220D01*
X183559007Y-80721837D01*
X183534027Y-80285397D01*
X183387181Y-79872535D01*
X183119980Y-79516885D01*
X182772377Y-79270749D01*
X182287092Y-79106774D01*
X181821928Y-79110277D01*
X181384780Y-79280002D01*
X181050626Y-79544466D01*
X180746414Y-79951924D01*
X180605876Y-80400068D01*
X169727584Y-80400068D01*
X170014295Y-80142317D01*
X170718786Y-79508996D01*
X171334867Y-78955161D01*
X171847792Y-78494072D01*
X172078108Y-78287039D01*
X172624606Y-77798856D01*
X173131310Y-77352127D01*
X173584704Y-76958323D01*
X173971271Y-76628920D01*
X174277496Y-76375391D01*
X174489864Y-76209211D01*
X174594857Y-76141854D01*
X174603578Y-76143068D01*
G37*
%TD.AperFunction*%
%TA.AperFunction,EtchedComponent*%
G36*
X155794062Y-93368895D02*
G01*
X155863598Y-93444638D01*
X156039748Y-93638607D01*
X156315719Y-93943281D01*
X156684716Y-94351138D01*
X157139946Y-94854658D01*
X157674614Y-95446318D01*
X158281925Y-96118599D01*
X158955087Y-96863978D01*
X159687305Y-97674935D01*
X160471784Y-98543949D01*
X161301731Y-99463498D01*
X162170352Y-100426061D01*
X163070853Y-101424118D01*
X163276825Y-101652427D01*
X170647668Y-109822761D01*
X170625961Y-115368427D01*
X170621548Y-116473085D01*
X170617305Y-117421236D01*
X170612788Y-118225707D01*
X170607549Y-118899324D01*
X170601145Y-119454912D01*
X170593128Y-119905298D01*
X170583054Y-120263307D01*
X170570477Y-120541765D01*
X170554951Y-120753498D01*
X170536030Y-120911333D01*
X170513269Y-121028095D01*
X170486222Y-121116610D01*
X170454444Y-121189704D01*
X170421508Y-121252761D01*
X170147825Y-121652463D01*
X169818389Y-121966299D01*
X169519242Y-122136374D01*
X169414592Y-122149632D01*
X169172140Y-122161767D01*
X168789367Y-122172796D01*
X168263753Y-122182735D01*
X167592779Y-122191601D01*
X166773926Y-122199409D01*
X165804673Y-122206176D01*
X164682503Y-122211918D01*
X163404895Y-122216652D01*
X161969330Y-122220393D01*
X160373290Y-122223158D01*
X158614253Y-122224963D01*
X156689702Y-122225825D01*
X155633908Y-122225906D01*
X153839884Y-122225714D01*
X152207516Y-122225235D01*
X150729129Y-122224394D01*
X149397048Y-122223119D01*
X148203596Y-122221336D01*
X147141096Y-122218973D01*
X146201874Y-122215955D01*
X145378253Y-122212209D01*
X144662556Y-122207664D01*
X144047108Y-122202244D01*
X143524233Y-122195877D01*
X143086255Y-122188489D01*
X142725498Y-122180008D01*
X142434285Y-122170361D01*
X142204942Y-122159473D01*
X142029790Y-122147272D01*
X141901156Y-122133684D01*
X141811361Y-122118637D01*
X141752732Y-122102057D01*
X141732920Y-122093281D01*
X141310437Y-121800702D01*
X140998437Y-121405950D01*
X140895919Y-121210427D01*
X140859982Y-121130271D01*
X140829135Y-121045570D01*
X140802927Y-120943284D01*
X140780906Y-120810375D01*
X140762619Y-120633800D01*
X140747616Y-120400521D01*
X140735444Y-120097498D01*
X140725651Y-119711690D01*
X140717786Y-119230057D01*
X140711396Y-118639560D01*
X140706030Y-117927159D01*
X140701236Y-117079813D01*
X140696561Y-116084483D01*
X140696261Y-116015658D01*
X146953684Y-116015658D01*
X147007058Y-116407353D01*
X147142614Y-116727394D01*
X147155737Y-116746117D01*
X147456518Y-117033867D01*
X147837465Y-117217068D01*
X148252496Y-117287083D01*
X148655525Y-117235270D01*
X148960426Y-117084452D01*
X149304500Y-116739861D01*
X149506656Y-116336183D01*
X149559442Y-115902018D01*
X149557655Y-115894528D01*
X164762882Y-115894528D01*
X164804020Y-116343361D01*
X164980206Y-116759415D01*
X165284569Y-117109677D01*
X165586928Y-117306437D01*
X166067217Y-117460387D01*
X166541195Y-117449725D01*
X166961083Y-117291912D01*
X167347121Y-116989597D01*
X167609399Y-116608927D01*
X167741424Y-116181915D01*
X167736705Y-115740570D01*
X167588749Y-115316905D01*
X167412509Y-115065959D01*
X167076231Y-114752496D01*
X166719935Y-114579637D01*
X166289418Y-114522140D01*
X166243920Y-114521761D01*
X165776868Y-114577756D01*
X165399844Y-114758435D01*
X165113232Y-115030569D01*
X164863662Y-115445927D01*
X164762882Y-115894528D01*
X149557655Y-115894528D01*
X149455408Y-115465970D01*
X149407817Y-115367106D01*
X149136813Y-115018056D01*
X148782788Y-114791476D01*
X148380652Y-114688319D01*
X147965313Y-114709540D01*
X147571682Y-114856092D01*
X147234668Y-115128929D01*
X147103811Y-115304153D01*
X146985074Y-115624021D01*
X146953684Y-116015658D01*
X140696261Y-116015658D01*
X140693439Y-115367204D01*
X140669958Y-109904980D01*
X142715329Y-107636558D01*
X154357053Y-107636558D01*
X154401368Y-108022457D01*
X154563471Y-108383807D01*
X154850127Y-108691398D01*
X155091157Y-108841203D01*
X155448636Y-108980964D01*
X155761828Y-109001572D01*
X156098428Y-108902258D01*
X156256480Y-108827927D01*
X156573698Y-108591911D01*
X156828877Y-108260647D01*
X156984776Y-107891274D01*
X157015254Y-107663761D01*
X156952161Y-107354000D01*
X156789156Y-107014751D01*
X156565646Y-106712770D01*
X156344553Y-106527582D01*
X156015871Y-106404395D01*
X155665513Y-106361196D01*
X155222365Y-106431684D01*
X154863181Y-106623675D01*
X154594724Y-106907957D01*
X154423759Y-107255322D01*
X154357053Y-107636558D01*
X142715329Y-107636558D01*
X148176049Y-101580338D01*
X149274104Y-100363020D01*
X150264508Y-99266167D01*
X151152551Y-98284075D01*
X151943523Y-97411044D01*
X152642714Y-96641371D01*
X153255414Y-95969353D01*
X153786913Y-95389288D01*
X154242502Y-94895475D01*
X154627471Y-94482211D01*
X154947109Y-94143793D01*
X155206707Y-93874519D01*
X155411555Y-93668688D01*
X155566944Y-93520597D01*
X155678162Y-93424544D01*
X155750501Y-93374826D01*
X155789250Y-93365742D01*
X155794062Y-93368895D01*
G37*
%TD.AperFunction*%
%TA.AperFunction,EtchedComponent*%
G36*
X132313934Y-76253370D02*
G01*
X133226494Y-76256094D01*
X134073757Y-76260440D01*
X134841886Y-76266249D01*
X135517049Y-76273364D01*
X136085411Y-76281625D01*
X136533138Y-76290875D01*
X136846394Y-76300956D01*
X137011347Y-76311707D01*
X137033920Y-76317512D01*
X137095339Y-76381501D01*
X137274646Y-76552553D01*
X137564413Y-76823846D01*
X137957214Y-77188557D01*
X138445624Y-77639862D01*
X139022215Y-78170938D01*
X139679560Y-78774961D01*
X140410234Y-79445109D01*
X141206810Y-80174559D01*
X142061861Y-80956487D01*
X142967962Y-81784070D01*
X143917684Y-82650485D01*
X144903603Y-83548908D01*
X145028165Y-83662345D01*
X146017781Y-84564044D01*
X146971924Y-85434459D01*
X147883184Y-86266779D01*
X148744153Y-87054194D01*
X149547421Y-87789891D01*
X150285580Y-88467061D01*
X150951219Y-89078890D01*
X151536929Y-89618569D01*
X152035301Y-90079286D01*
X152438927Y-90454230D01*
X152740396Y-90736589D01*
X152932300Y-90919552D01*
X153007229Y-90996308D01*
X153007998Y-90998106D01*
X152945606Y-91061817D01*
X152766888Y-91234382D01*
X152479135Y-91508930D01*
X152089637Y-91878588D01*
X151605685Y-92336483D01*
X151034569Y-92875742D01*
X150383580Y-93489494D01*
X149660008Y-94170866D01*
X148871144Y-94912985D01*
X148024278Y-95708979D01*
X147126701Y-96551975D01*
X146185703Y-97435101D01*
X145208575Y-98351484D01*
X144992587Y-98553959D01*
X136991587Y-106053801D01*
X131361254Y-106048783D01*
X130196174Y-106047125D01*
X129189013Y-106044221D01*
X128328359Y-106039842D01*
X127602799Y-106033758D01*
X127000923Y-106025740D01*
X126511317Y-106015557D01*
X126122571Y-106002980D01*
X125823273Y-105987779D01*
X125602010Y-105969726D01*
X125447371Y-105948589D01*
X125359697Y-105927999D01*
X124939923Y-105718347D01*
X124551824Y-105377450D01*
X124237728Y-104943061D01*
X124220668Y-104912094D01*
X124037587Y-104573427D01*
X124030097Y-100091599D01*
X129356941Y-100091599D01*
X129407213Y-100552202D01*
X129612406Y-100995980D01*
X129729478Y-101151834D01*
X130086624Y-101452608D01*
X130517630Y-101618783D01*
X130985260Y-101643560D01*
X131452280Y-101520136D01*
X131533865Y-101481421D01*
X131919925Y-101194348D01*
X132185482Y-100802388D01*
X132312122Y-100335752D01*
X132320230Y-100191218D01*
X132253151Y-99681700D01*
X132049220Y-99265790D01*
X131720090Y-98955728D01*
X131277411Y-98763753D01*
X130906590Y-98706209D01*
X130585515Y-98698679D01*
X130361946Y-98734025D01*
X130166480Y-98826583D01*
X130093268Y-98874191D01*
X129704207Y-99226059D01*
X129457352Y-99640706D01*
X129356941Y-100091599D01*
X124030097Y-100091599D01*
X124015379Y-91284575D01*
X124014958Y-91048472D01*
X137850019Y-91048472D01*
X137876715Y-91466412D01*
X138040760Y-91853856D01*
X138336604Y-92177887D01*
X138581157Y-92331203D01*
X138937358Y-92470017D01*
X139253050Y-92490794D01*
X139599240Y-92394219D01*
X139720338Y-92342157D01*
X140094412Y-92087096D01*
X140347445Y-91734439D01*
X140466299Y-91317095D01*
X140437834Y-90867971D01*
X140381767Y-90685512D01*
X140152250Y-90294188D01*
X139827966Y-90020301D01*
X139442262Y-89870561D01*
X139028485Y-89851676D01*
X138619982Y-89970354D01*
X138250099Y-90233305D01*
X138230864Y-90252781D01*
X137966220Y-90632955D01*
X137850019Y-91048472D01*
X124014958Y-91048472D01*
X124012180Y-89490363D01*
X124009077Y-87857586D01*
X124006400Y-86378347D01*
X124004480Y-85044751D01*
X124003647Y-83848898D01*
X124004231Y-82782892D01*
X124005301Y-82349540D01*
X129351088Y-82349540D01*
X129482814Y-82775684D01*
X129683708Y-83073139D01*
X130086997Y-83425924D01*
X130529629Y-83618735D01*
X130998069Y-83648590D01*
X131478783Y-83512509D01*
X131541668Y-83482376D01*
X131902711Y-83212158D01*
X132165131Y-82836660D01*
X132308971Y-82400382D01*
X132314279Y-81947824D01*
X132287096Y-81820037D01*
X132110592Y-81373141D01*
X131842130Y-81047719D01*
X131503265Y-80831694D01*
X131047569Y-80680341D01*
X130609733Y-80688396D01*
X130173377Y-80845594D01*
X129779623Y-81126899D01*
X129506592Y-81492854D01*
X129361380Y-81911165D01*
X129351088Y-82349540D01*
X124005301Y-82349540D01*
X124006561Y-81838835D01*
X124010969Y-81008831D01*
X124017783Y-80284982D01*
X124027334Y-79659390D01*
X124039952Y-79124159D01*
X124055967Y-78671392D01*
X124075710Y-78293190D01*
X124099509Y-77981657D01*
X124127696Y-77728895D01*
X124160600Y-77527007D01*
X124198552Y-77368096D01*
X124241881Y-77244265D01*
X124290917Y-77147616D01*
X124345991Y-77070252D01*
X124407433Y-77004276D01*
X124475572Y-76941790D01*
X124550739Y-76874898D01*
X124620383Y-76808695D01*
X124901157Y-76576151D01*
X125200338Y-76401491D01*
X125317410Y-76356553D01*
X125437445Y-76334379D01*
X125644773Y-76315245D01*
X125948673Y-76298993D01*
X126358425Y-76285462D01*
X126883309Y-76274492D01*
X127532605Y-76265923D01*
X128315591Y-76259594D01*
X129241549Y-76255345D01*
X130319758Y-76253016D01*
X131349910Y-76252427D01*
X132313934Y-76253370D01*
G37*
%TD.AperFunction*%
%TD*%
M02*
