%TF.GenerationSoftware,KiCad,Pcbnew,8.0.1*%
%TF.CreationDate,2024-03-29T22:35:27+02:00*%
%TF.ProjectId,COOLER BASE,434f4f4c-4552-4204-9241-53452e6b6963,rev?*%
%TF.SameCoordinates,Original*%
%TF.FileFunction,Profile,NP*%
%FSLAX46Y46*%
G04 Gerber Fmt 4.6, Leading zero omitted, Abs format (unit mm)*
G04 Created by KiCad (PCBNEW 8.0.1) date 2024-03-29 22:35:27*
%MOMM*%
%LPD*%
G01*
G04 APERTURE LIST*
%TA.AperFunction,Profile*%
%ADD10C,0.050000*%
%TD*%
G04 APERTURE END LIST*
D10*
X113000000Y-64060000D02*
X113550000Y-64060000D01*
X113750000Y-64060000D02*
X114300000Y-64060000D01*
X114500000Y-64060000D02*
X115050000Y-64060000D01*
X115250000Y-64060000D02*
X115800000Y-64060000D01*
X116000000Y-64060000D02*
X116550000Y-64060000D01*
X116750000Y-64060000D02*
X117300000Y-64060000D01*
X117500000Y-64060000D02*
X117980000Y-64060000D01*
X117980000Y-64060000D02*
X118368909Y-64448909D01*
X118510330Y-64590330D02*
X118899239Y-64979239D01*
X119040660Y-65120660D02*
X119429569Y-65509569D01*
X119570990Y-65650990D02*
X119959899Y-66039899D01*
X120101320Y-66181320D02*
X120490229Y-66570229D01*
X120631650Y-66711650D02*
X121020559Y-67100559D01*
X121161981Y-67241981D02*
X121550889Y-67630889D01*
X121692311Y-67772311D02*
X122081219Y-68161219D01*
X122222641Y-68302641D02*
X122611549Y-68691549D01*
X122752971Y-68832971D02*
X123141880Y-69221880D01*
X123283301Y-69363301D02*
X123672210Y-69752210D01*
X123813631Y-69893631D02*
X124202540Y-70282540D01*
X124343961Y-70423961D02*
X124732870Y-70812870D01*
X124874291Y-70954291D02*
X125263200Y-71343200D01*
X125404621Y-71484621D02*
X125793530Y-71873530D01*
X125934951Y-72014951D02*
X126323860Y-72403860D01*
X126465281Y-72545281D02*
X126854190Y-72934190D01*
X126995611Y-73075611D02*
X127260000Y-73340000D01*
X127260000Y-73340000D02*
X127260000Y-73890000D01*
X127260000Y-74090000D02*
X127260000Y-74640000D01*
X127260000Y-74840000D02*
X127260000Y-75390000D01*
X127260000Y-75590000D02*
X127260000Y-76140000D01*
X127260000Y-76340000D02*
X127260000Y-76890000D01*
X127260000Y-77090000D02*
X127260000Y-77640000D01*
X127260000Y-77840000D02*
X127260000Y-78390000D01*
X127260000Y-78590000D02*
X127260000Y-79140000D01*
X127260000Y-79340000D02*
X127260000Y-79890000D01*
X127260000Y-80090000D02*
X127260000Y-80640000D01*
X127260000Y-80840000D02*
X127260000Y-81390000D01*
X127260000Y-81590000D02*
X127260000Y-82140000D01*
X127260000Y-82340000D02*
X127260000Y-82890000D01*
X127260000Y-83090000D02*
X127260000Y-83640000D01*
X127260000Y-83840000D02*
X127260000Y-84390000D01*
X127260000Y-84590000D02*
X127260000Y-85140000D01*
X127260000Y-85340000D02*
X127260000Y-85890000D01*
X127260000Y-86090000D02*
X127260000Y-86640000D01*
X127260000Y-86840000D02*
X127260000Y-87390000D01*
X127260000Y-87590000D02*
X127260000Y-88140000D01*
X127260000Y-88340000D02*
X127260000Y-88890000D01*
X127260000Y-89090000D02*
X127260000Y-89640000D01*
X127260000Y-89840000D02*
X127260000Y-90390000D01*
X127260000Y-90590000D02*
X127260000Y-91140000D01*
X127260000Y-91340000D02*
X127260000Y-91890000D01*
X127260000Y-92090000D02*
X127260000Y-92640000D01*
X127260000Y-92840000D02*
X127260000Y-93390000D01*
X127260000Y-93590000D02*
X127260000Y-94140000D01*
X127260000Y-94340000D02*
X127260000Y-94890000D01*
X127260000Y-95090000D02*
X127260000Y-95640000D01*
X127260000Y-95840000D02*
X127260000Y-96390000D01*
X127260000Y-96590000D02*
X127260000Y-97140000D01*
X127260000Y-97340000D02*
X127260000Y-97890000D01*
X127260000Y-98090000D02*
X127260000Y-98640000D01*
X127260000Y-98840000D02*
X127260000Y-99390000D01*
X127260000Y-99590000D02*
X127260000Y-100140000D01*
X127260000Y-100340000D02*
X127260000Y-100890000D01*
X127260000Y-101090000D02*
X127260000Y-101640000D01*
X127260000Y-101800000D02*
X126871091Y-102188909D01*
X126729670Y-102330330D02*
X126340761Y-102719239D01*
X126199340Y-102860660D02*
X125810431Y-103249569D01*
X125669010Y-103390990D02*
X125280101Y-103779899D01*
X125138680Y-103921320D02*
X124749771Y-104310229D01*
X124608350Y-104451650D02*
X124219441Y-104840559D01*
X124078019Y-104981981D02*
X123689111Y-105370889D01*
X123547689Y-105512311D02*
X123158781Y-105901219D01*
X123017359Y-106042641D02*
X122628451Y-106431549D01*
X122487029Y-106572971D02*
X122098120Y-106961880D01*
X121956699Y-107103301D02*
X121567790Y-107492210D01*
X121426369Y-107633631D02*
X121037460Y-108022540D01*
X120896039Y-108163961D02*
X120507130Y-108552870D01*
X120365709Y-108694291D02*
X119976800Y-109083200D01*
X119835379Y-109224621D02*
X119446470Y-109613530D01*
X119305049Y-109754951D02*
X118916140Y-110143860D01*
X118774719Y-110285281D02*
X118385810Y-110674190D01*
X118244389Y-110815611D02*
X118060000Y-111000000D01*
X118060000Y-111000000D02*
X117510000Y-111000000D01*
X117310000Y-111000000D02*
X116760000Y-111000000D01*
X116560000Y-111000000D02*
X116010000Y-111000000D01*
X115810000Y-111000000D02*
X115260000Y-111000000D01*
X115060000Y-111000000D02*
X114510000Y-111000000D01*
X114310000Y-111000000D02*
X113760000Y-111000000D01*
X113560000Y-111000000D02*
X113010000Y-111000000D01*
X112990000Y-111000000D02*
X112990000Y-110450000D01*
X112990000Y-110250000D02*
X112990000Y-109700000D01*
X112990000Y-109500000D02*
X112990000Y-108950000D01*
X112990000Y-108750000D02*
X112990000Y-108200000D01*
X112990000Y-108000000D02*
X112990000Y-107450000D01*
X112990000Y-107250000D02*
X112990000Y-106700000D01*
X112990000Y-106500000D02*
X112990000Y-105950000D01*
X112990000Y-105750000D02*
X112990000Y-105200000D01*
X112990000Y-105000000D02*
X112990000Y-104450000D01*
X112990000Y-104250000D02*
X112990000Y-103700000D01*
X112990000Y-103500000D02*
X112990000Y-102950000D01*
X112990000Y-102750000D02*
X112990000Y-102200000D01*
X112990000Y-102000000D02*
X112990000Y-101450000D01*
X112990000Y-101250000D02*
X112990000Y-100700000D01*
X112990000Y-100500000D02*
X112990000Y-99950000D01*
X112990000Y-99750000D02*
X112990000Y-99200000D01*
X112990000Y-99000000D02*
X112990000Y-98450000D01*
X112990000Y-98250000D02*
X112990000Y-97700000D01*
X112990000Y-97500000D02*
X112990000Y-96950000D01*
X112990000Y-96750000D02*
X112990000Y-96200000D01*
X112990000Y-96000000D02*
X112990000Y-95450000D01*
X112990000Y-95250000D02*
X112990000Y-94700000D01*
X112990000Y-94500000D02*
X112990000Y-93950000D01*
X112990000Y-93750000D02*
X112990000Y-93200000D01*
X112990000Y-93000000D02*
X112990000Y-92450000D01*
X112990000Y-92250000D02*
X112990000Y-91700000D01*
X112990000Y-91500000D02*
X112990000Y-90950000D01*
X112990000Y-90750000D02*
X112990000Y-90200000D01*
X112990000Y-90000000D02*
X112990000Y-89450000D01*
X112990000Y-89250000D02*
X112990000Y-88700000D01*
X112990000Y-88500000D02*
X112990000Y-87950000D01*
X112990000Y-87750000D02*
X112990000Y-87200000D01*
X112990000Y-87000000D02*
X112990000Y-86450000D01*
X112990000Y-86250000D02*
X112990000Y-85700000D01*
X112990000Y-85500000D02*
X112990000Y-84950000D01*
X112990000Y-84750000D02*
X112990000Y-84200000D01*
X112990000Y-84000000D02*
X112990000Y-83450000D01*
X112990000Y-83250000D02*
X112990000Y-82700000D01*
X112990000Y-82500000D02*
X112990000Y-81950000D01*
X112990000Y-81750000D02*
X112990000Y-81200000D01*
X112990000Y-81000000D02*
X112990000Y-80450000D01*
X112990000Y-80250000D02*
X112990000Y-79700000D01*
X112990000Y-79500000D02*
X112990000Y-78950000D01*
X112990000Y-78750000D02*
X112990000Y-78200000D01*
X112990000Y-78000000D02*
X112990000Y-77450000D01*
X112990000Y-77250000D02*
X112990000Y-76700000D01*
X112990000Y-76500000D02*
X112990000Y-75950000D01*
X112990000Y-75750000D02*
X112990000Y-75200000D01*
X112990000Y-75000000D02*
X112990000Y-74450000D01*
X112990000Y-74250000D02*
X112990000Y-73700000D01*
X112990000Y-73500000D02*
X112990000Y-72950000D01*
X112990000Y-72750000D02*
X112990000Y-72200000D01*
X112990000Y-72000000D02*
X112990000Y-71450000D01*
X112990000Y-71250000D02*
X112990000Y-70700000D01*
X112990000Y-70500000D02*
X112990000Y-69950000D01*
X112990000Y-69750000D02*
X112990000Y-69200000D01*
X112990000Y-69000000D02*
X112990000Y-68450000D01*
X112990000Y-68250000D02*
X112990000Y-67700000D01*
X112990000Y-67500000D02*
X112990000Y-66950000D01*
X112990000Y-66750000D02*
X112990000Y-66200000D01*
X112990000Y-66000000D02*
X112990000Y-65450000D01*
X112990000Y-65250000D02*
X112990000Y-64700000D01*
X112990000Y-64500000D02*
X112990000Y-64070000D01*
X112990000Y-64070000D02*
X113000000Y-64060000D01*
M02*
